<?xml version="1.0" standalone="no"?>
<!DOCTYPE svg PUBLIC "-//W3C//DTD SVG 20010904//EN"
 "http://www.w3.org/TR/2001/REC-SVG-20010904/DTD/svg10.dtd">
<svg version="1.0" xmlns="http://www.w3.org/2000/svg"
 width="170.000000pt" height="170.000000pt" viewBox="0 0 170.000000 170.000000"
 preserveAspectRatio="xMidYMid meet">
<metadata>
Created by potrace 1.14, written by Peter Selinger 2001-2017
</metadata>
<g transform="translate(0.000000,170.000000) scale(0.100000,-0.100000)"
fill="#000000" stroke="none">
<path d="M777 1284 c-1 -2 -18 -6 -36 -9 -19 -3 -42 -10 -51 -15 -10 -5 -20
-6 -24 -3 -3 3 -6 1 -6 -5 0 -6 -15 -15 -34 -22 -34 -11 -156 -114 -156 -132
0 -5 -6 -16 -14 -24 -18 -17 -56 -117 -64 -164 -7 -46 -7 -118 1 -155 13 -65
16 -75 43 -130 75 -152 257 -258 428 -248 295 17 494 302 412 588 -21 71 -69
146 -127 201 -44 40 -145 94 -204 109 -28 7 -163 14 -168 9z"/>
</g>
</svg>
